<?xml version="1.0" encoding="UTF-8" standalone="no"?>
<!-- Created with Inkscape (http://www.inkscape.org/) -->

<svg
   xmlns:dc="http://purl.org/dc/elements/1.1/"
   xmlns:cc="http://creativecommons.org/ns#"
   xmlns:rdf="http://www.w3.org/1999/02/22-rdf-syntax-ns#"
   xmlns:svg="http://www.w3.org/2000/svg"
   xmlns="http://www.w3.org/2000/svg"
   xmlns:sodipodi="http://sodipodi.sourceforge.net/DTD/sodipodi-0.dtd"
   xmlns:inkscape="http://www.inkscape.org/namespaces/inkscape"
   id="svg3076"
   version="1.1"
   inkscape:version="0.48.3.1 r9886"
   width="446.42001"
   height="446.42001"
   xml:space="preserve"
   sodipodi:docname="GitHub-Mark.svg"><metadata
     id="metadata3082"><rdf:RDF><cc:Work
         rdf:about=""><dc:format>image/svg+xml</dc:format><dc:type
           rdf:resource="http://purl.org/dc/dcmitype/StillImage" /><dc:title></dc:title></cc:Work></rdf:RDF></metadata><defs
     id="defs3080"><clipPath
       clipPathUnits="userSpaceOnUse"
       id="clipPath3092"><path
         d="m 0,0 3091,0 0,1766.7 -3091,0 L 0,0 z"
         id="path3094"
         inkscape:connector-curvature="0" /></clipPath></defs><sodipodi:namedview
     pagecolor="#ffffff"
     bordercolor="#666666"
     borderopacity="1"
     objecttolerance="10"
     gridtolerance="10"
     guidetolerance="10"
     inkscape:pageopacity="0"
     inkscape:pageshadow="2"
     inkscape:window-width="1366"
     inkscape:window-height="744"
     id="namedview3078"
     showgrid="false"
     inkscape:zoom="0.9342046"
     inkscape:cx="192.36433"
     inkscape:cy="107.4625"
     inkscape:window-x="0"
     inkscape:window-y="24"
     inkscape:window-maximized="1"
     inkscape:current-layer="g3084" /><g
     id="g3084"
     inkscape:groupmode="layer"
     inkscape:label="ink_ext_XXXXXX"
     transform="matrix(1.25,0,0,-1.25,0,423.84002)"><path
       inkscape:connector-curvature="0"
       id="path3098"
       style="fill:#000000;fill-opacity:1;fill-rule:evenodd;stroke:none"
       d="m 184.43194,323.7533 c -82.09615,0 -148.667716,-69.34971 -148.667716,-154.90368 0,-68.44161 42.597827,-126.507083 101.668056,-146.990324 7.42994,-1.433938 10.1577,3.360644 10.1577,7.452111 0,3.694376 -0.13787,15.895924 -0.20187,28.840094 -41.3595,-9.369845 -50.086853,18.276923 -50.086853,18.276923 -6.762766,17.905235 -16.506872,22.666724 -16.506872,22.666724 -13.488618,9.614532 1.016762,9.417022 1.016762,9.417022 14.92881,-1.092 22.789573,-15.965161 22.789573,-15.965161 13.25966,-23.680742 34.77891,-16.834019 43.26254,-12.875933 1.33433,10.010102 5.18716,16.847093 9.43882,20.714864 -33.02113,3.91471 -67.733566,17.19979 -67.733566,76.55427 0,16.91224 5.807557,30.73088 15.317776,41.57905 -1.54359,3.9042 -6.632289,19.65699 1.4402,40.99417 0,0 12.48663,4.1633 40.89422,-15.88104 11.85884,3.43478 24.57689,5.15602 37.21123,5.21501 12.63434,-0.059 25.36224,-1.78023 37.24324,-5.21501 28.37558,20.04434 40.84252,15.88104 40.84252,15.88104 8.09217,-21.33718 3.00103,-37.08997 1.45743,-40.99417 9.53483,-10.84817 15.30055,-24.66681 15.30055,-41.57905 0,-59.49788 -34.77891,-72.59647 -67.88374,-76.43216 5.33242,-4.806639 10.08384,-14.233684 10.08384,-28.686945 0,-20.725917 -0.17233,-37.407549 -0.17233,-42.509698 0,-4.122505 2.67606,-8.952231 10.21186,-7.431077 59.03823,20.505296 101.58435,78.55076 101.58435,146.96929 0,85.55397 -66.56419,154.90368 -148.66772,154.90368" /><path
       inkscape:connector-curvature="0"
       id="path3100"
       style="fill:#000000;fill-opacity:1;fill-rule:nonzero;stroke:none"
       d="m 92.072243,101.34481 c -0.32744,-0.77161 -1.489444,-1.00196 -2.54805,-0.47301 -1.078303,0.5061 -1.681459,1.55526 -1.334335,2.32687 0.320049,0.79161 1.484517,1.01193 2.560356,0.4838 1.080755,-0.50586 1.696229,-1.56605 1.322029,-2.33766 l 0,0" /><path
       inkscape:connector-curvature="0"
       id="path3102"
       style="fill:#000000;fill-opacity:1;fill-rule:nonzero;stroke:none"
       d="m 98.09644,94.345709 c -0.711482,-0.683358 -2.097516,-0.365797 -3.037954,0.716457 -0.972441,1.080206 -1.154614,2.525171 -0.435741,3.219566 0.731166,0.683358 2.075355,0.362711 3.05026,-0.716458 0.972441,-1.092255 1.162004,-2.52517 0.423435,-3.219565 l 0,0" /><path
       inkscape:connector-curvature="0"
       id="path3104"
       style="fill:#000000;fill-opacity:1;fill-rule:nonzero;stroke:none"
       d="m 103.95571,85.425545 c -0.9109,-0.661307 -2.40033,-0.04305 -3.32107,1.33492 -0.910892,1.377765 -0.910892,3.031026 0.0222,3.692321 0.92074,0.661307 2.38801,0.06513 3.32107,-1.299515 0.90842,-1.400852 0.90842,-3.054369 -0.0222,-3.727726 l 0,0" /><path
       inkscape:connector-curvature="0"
       id="path3106"
       style="fill:#000000;fill-opacity:1;fill-rule:nonzero;stroke:none"
       d="m 111.98634,76.806282 c -0.81488,-0.936816 -2.5505,-0.685419 -3.82083,0.592034 -1.29987,1.249767 -1.6593,3.022306 -0.84442,3.958085 0.82719,0.938853 2.57266,0.674382 3.85037,-0.592045 1.29003,-1.247706 1.68392,-3.032307 0.81488,-3.958074 l 0,0" /><path
       inkscape:connector-curvature="0"
       id="path3108"
       style="fill:#000000;fill-opacity:1;fill-rule:nonzero;stroke:none"
       d="m 123.06478,71.801091 c -0.35943,-1.213325 -2.03105,-1.764587 -3.71497,-1.249499 -1.68146,0.530992 -2.78192,1.951846 -2.44218,3.178514 0.34959,1.221289 2.02859,1.795626 3.72482,1.244376 1.679,-0.528943 2.78192,-1.939796 2.43233,-3.173391 l 0,0" /><path
       inkscape:connector-curvature="0"
       id="path3110"
       style="fill:#000000;fill-opacity:1;fill-rule:nonzero;stroke:none"
       d="m 135.23383,70.872239 c 0.0394,-1.277465 -1.3885,-2.336619 -3.15612,-2.359706 -1.77502,-0.0411 -3.21521,0.992978 -3.23491,2.249405 0,1.290794 1.39589,2.339704 3.17335,2.371 1.76764,0.03488 3.21768,-0.991187 3.21768,-2.260699 l 0,0" /><path
       inkscape:connector-curvature="0"
       id="path3112"
       style="fill:#000000;fill-opacity:1;fill-rule:nonzero;stroke:none"
       d="m 146.55353,72.881284 c 0.21173,-1.246413 -1.01675,-2.526951 -2.77206,-2.867868 -1.72578,-0.328598 -3.32108,0.440949 -3.54264,1.677374 -0.21419,1.27772 1.03644,2.557234 2.75976,2.887881 1.75778,0.318598 3.33091,-0.430692 3.55494,-1.697387 l 0,0" /><path
       inkscape:connector-curvature="0"
       id="path3114"
       style="fill:none;stroke:#3a7fc3;stroke-width:2.5129981;stroke-linecap:round;stroke-linejoin:miter;stroke-miterlimit:10;stroke-opacity:1;stroke-dasharray:none"
       d="m -125.05281,338.9751 0,-1.2826" /></g></svg>