<?xml version="1.0" encoding="utf-8"?>
<!-- Generator: Adobe Illustrator 16.0.0, SVG Export Plug-In . SVG Version: 6.00 Build 0)  -->
<!DOCTYPE svg PUBLIC "-//W3C//DTD SVG 1.1//EN" "http://www.w3.org/Graphics/SVG/1.1/DTD/svg11.dtd">
<svg version="1.1" id="Layer_1" xmlns="http://www.w3.org/2000/svg" xmlns:xlink="http://www.w3.org/1999/xlink" x="0px" y="0px"
	 width="38.527px" height="48.477px" viewBox="382.242 275.025 38.527 48.477"
	 enable-background="new 382.242 275.025 38.527 48.477" xml:space="preserve">
<g>
	<circle fill="none" stroke="#000000" stroke-width="2" stroke-miterlimit="10" cx="401.977" cy="303.488" r="17.794"/>
	<path d="M389.135,316.135c-7.254-7.254-7.526-18.84-0.826-26.425c-0.301,0.266-0.598,0.539-0.886,0.827
		c-7.541,7.541-6.541,19.769,1,27.31c7.542,7.541,18.769,7.54,26.31,0c0.289-0.289,0.562-0.586,0.828-0.889
		C407.979,323.661,396.39,323.389,389.135,316.135z"/>
	<path d="M410.902,301c-1.502,0.082-3.006,0.143-4.508,0.183c0.004-1.075,0.006-2.15,0.006-3.227
		c1.466,0.009,2.933,0.023,4.397,0.042c0-0.334-0.002-0.668-0.004-1.002c-1.832-0.064-3.664-0.108-5.496-0.133
		c-0.002-1.086-0.006-2.172-0.013-3.259c1.461,0.056,2.921,0.149,4.382,0.279c-0.005-0.342-0.01-0.684-0.017-1.025
		c-2.166-0.236-4.332-0.372-6.498-0.407c-0.397-5.803-0.803-11.621-1.153-17.426c-0.353,5.806-0.756,11.623-1.155,17.426
		c-2.166,0.036-4.332,0.171-6.498,0.407c-0.006,0.342-0.011,0.684-0.016,1.025c1.46-0.13,2.921-0.224,4.382-0.279
		c-0.006,1.086-0.01,2.173-0.012,3.259c-1.833,0.024-3.665,0.068-5.497,0.133c-0.002,0.334-0.003,0.668-0.004,1.002
		c1.466-0.02,2.933-0.033,4.399-0.042c-0.001,1.076,0.001,2.151,0.005,3.227c-1.502-0.04-3.005-0.101-4.507-0.183
		c2.167,3.487,4.374,7.418,6.489,11.269c-0.174,3.219-0.325,6.423-0.444,9.606c1.905,0.355,3.809,0.355,5.714,0
		c-0.119-3.185-0.271-6.389-0.444-9.606C406.529,308.418,408.734,304.487,410.902,301z"/>
</g>
</svg>
